<svg width="67" height="12" viewBox="0 0 67 12" fill="none" xmlns="http://www.w3.org/2000/svg">
<path opacity="0.35" d="M45.0005 0.50293H61.6665C62.8631 0.50293 63.8335 1.4733 63.8335 2.66992V8.66992C63.8333 9.86639 62.863 10.8359 61.6665 10.8359H45.0005C43.804 10.8359 42.8337 9.86639 42.8335 8.66992V2.66992C42.8335 1.47331 43.8039 0.50293 45.0005 0.50293Z" stroke="black"/>
<path opacity="0.4" d="M65.3335 3.66992V7.66992C66.1382 7.33115 66.6615 6.54306 66.6615 5.66992C66.6615 4.79679 66.1382 4.0087 65.3335 3.66992" fill="black"/>
<path d="M44.3335 3.33626C44.3335 2.59988 44.9304 2.00293 45.6668 2.00293H61.0002C61.7365 2.00293 62.3335 2.59988 62.3335 3.33626V8.00293C62.3335 8.73931 61.7365 9.33626 61.0002 9.33626H45.6668C44.9305 9.33626 44.3335 8.73931 44.3335 8.00293V3.33626Z" fill="black"/>
<path d="M27.4539 8.40057C28.7294 7.3217 30.5972 7.32173 31.8728 8.40057C31.937 8.4586 31.9746 8.54062 31.9763 8.62713C31.978 8.71346 31.9442 8.7971 31.8826 8.8576L29.8855 10.8732C29.827 10.9324 29.747 10.965 29.6638 10.965C29.5807 10.965 29.5007 10.9323 29.4421 10.8732L27.4441 8.8576C27.3824 8.79695 27.3485 8.71266 27.3503 8.62615C27.3523 8.5399 27.3899 8.45845 27.4539 8.40057ZM24.7888 5.71111C27.5369 3.15507 31.7927 3.15512 34.5408 5.71111C34.6027 5.77097 34.6384 5.85351 34.6394 5.93963C34.6403 6.02581 34.6064 6.10892 34.5457 6.1701L33.3914 7.33709C33.2724 7.45619 33.0798 7.45884 32.9578 7.34295C32.0553 6.52576 30.8813 6.07337 29.6638 6.07342C28.4471 6.07392 27.2737 6.52628 26.3718 7.34295C26.2498 7.45877 26.0572 7.45617 25.9382 7.33709L24.7839 6.1701C24.7233 6.10903 24.6894 6.02572 24.6902 5.93963C24.6911 5.8535 24.7269 5.77095 24.7888 5.71111ZM22.1238 3.02947C26.3389 -1.0097 32.9889 -1.00995 37.2039 3.02947C37.2648 3.08942 37.299 3.17156 37.2996 3.25701C37.3001 3.34257 37.2661 3.42481 37.2058 3.48553L36.0496 4.65252C35.9304 4.77199 35.7378 4.77324 35.617 4.65545C34.011 3.12872 31.8796 2.27764 29.6638 2.27752C27.4477 2.27751 25.3159 3.12856 23.7097 4.65545C23.5889 4.77344 23.3962 4.77222 23.2771 4.65252L22.1209 3.48553C22.0606 3.42476 22.0265 3.34259 22.0271 3.25701C22.0277 3.1715 22.0628 3.08939 22.1238 3.02947Z" fill="black"/>
<path d="M2 7.00293C2.55228 7.00293 3 7.45064 3 8.00293V10.0029C3 10.5552 2.55228 11.0029 2 11.0029H1C0.447715 11.0029 0 10.5552 0 10.0029V8.00293C0 7.45064 0.447715 7.00293 1 7.00293H2ZM6.66699 5.00293C7.21905 5.00319 7.66699 5.45081 7.66699 6.00293V10.0029C7.66699 10.5551 7.21905 11.0027 6.66699 11.0029H5.66699C5.11471 11.0029 4.66699 10.5552 4.66699 10.0029V6.00293C4.66699 5.45064 5.11471 5.00293 5.66699 5.00293H6.66699ZM16 0.335938C16.5523 0.335937 17 0.783653 17 1.33594V10.0029C16.9998 10.5551 16.5522 11.0029 16 11.0029H15C14.4478 11.0029 14.0002 10.5551 14 10.0029V1.33594C14 0.783653 14.4477 0.335938 15 0.335938H16ZM11.334 2.66895C11.886 2.66921 12.334 3.11682 12.334 3.66895V10.002C12.334 10.5541 11.886 11.0017 11.334 11.002H10.334C9.7817 11.002 9.33398 10.5542 9.33398 10.002V3.66895C9.33398 3.11666 9.7817 2.66895 10.334 2.66895H11.334Z" fill="black"/>
</svg>
