<svg width="46" height="40" viewBox="0 0 46 40" fill="none" xmlns="http://www.w3.org/2000/svg">
<rect width="45.5" height="40" rx="20" fill="#EDC3FF" fill-opacity="0.3"/>
<path d="M14 28C13.45 28 12.9792 27.8042 12.5875 27.4125C12.1958 27.0208 12 26.55 12 26V14C12 13.45 12.1958 12.9792 12.5875 12.5875C12.9792 12.1958 13.45 12 14 12H20L22 14H30C30.55 14 31.0208 14.1958 31.4125 14.5875C31.8042 14.9792 32 15.45 32 16H21.175L19.175 14H14V26L16.4 18H33.5L30.925 26.575C30.7917 27.0083 30.5458 27.3542 30.1875 27.6125C29.8292 27.8708 29.4333 28 29 28H14ZM16.1 26H29L30.8 20H17.9L16.1 26ZM16.1 26L17.9 20L16.1 26ZM14 16V14V16Z" fill="#745185"/>
</svg>
